<svg width="28" height="28" viewBox="0 0 28 28" fill="none" xmlns="http://www.w3.org/2000/svg">
<g opacity="0.5">
<mask id="path-1-inside-1_189_6664" fill="white">
<path d="M0 8.00001C0 3.58173 3.58172 0 8 0H19.991C24.4093 0 27.991 3.58172 27.991 8V19.991C27.991 24.4093 24.4093 27.991 19.991 27.991H8.00001C3.58173 27.991 0 24.4093 0 19.991V8.00001Z"/>
</mask>
<path d="M8 0V0.615187H19.991V0V-0.615187H8V0ZM27.991 8H27.3758V19.991H27.991H28.6062V8H27.991ZM19.991 27.991V27.3758H8.00001V27.991V28.6062H19.991V27.991ZM0 19.991H0.615187V8.00001H0H-0.615187V19.991H0ZM8.00001 27.991V27.3758C3.92149 27.3758 0.615187 24.0695 0.615187 19.991H0H-0.615187C-0.615187 24.749 3.24197 28.6062 8.00001 28.6062V27.991ZM27.991 19.991H27.3758C27.3758 24.0695 24.0695 27.3758 19.991 27.3758V27.991V28.6062C24.749 28.6062 28.6062 24.749 28.6062 19.991H27.991ZM19.991 0V0.615187C24.0695 0.615187 27.3758 3.92148 27.3758 8H27.991H28.6062C28.6062 3.24196 24.749 -0.615187 19.991 -0.615187V0ZM8 0V-0.615187C3.24196 -0.615187 -0.615187 3.24197 -0.615187 8.00001H0H0.615187C0.615187 3.92149 3.92148 0.615187 8 0.615187V0Z" fill="black" fill-opacity="0.39" mask="url(#path-1-inside-1_189_6664)"/>
<path d="M11.9961 17.9943L15.9948 13.9955L11.9961 9.99683" stroke="#0A0A0A" stroke-width="1.3329" stroke-linecap="round" stroke-linejoin="round"/>
</g>
</svg>
