<svg width="47" height="120" viewBox="0 0 47 120" fill="none" xmlns="http://www.w3.org/2000/svg">
<circle cx="21" cy="60" r="13" fill="#FFC800"/>
<path d="M30.006 55.345C29.9121 55.2367 29.796 55.1498 29.6655 55.0903C29.5351 55.0307 29.3934 54.9999 29.25 55H15.431L15.236 53.836C15.1972 53.6025 15.0768 53.3903 14.8962 53.2373C14.7157 53.0842 14.4867 53.0001 14.25 53H12C11.7348 53 11.4804 53.1054 11.2929 53.2929C11.1054 53.4804 11 53.7348 11 54C11 54.2652 11.1054 54.5196 11.2929 54.7071C11.4804 54.8946 11.7348 55 12 55H13.403L15.263 66.164L15.308 66.288L15.362 66.439L15.482 66.618L15.577 66.73L15.77 66.86L15.882 66.925C15.9985 66.9729 16.123 66.9983 16.249 67H27.25C27.5152 67 27.7696 66.8946 27.9571 66.7071C28.1446 66.5196 28.25 66.2652 28.25 66C28.25 65.7348 28.1446 65.4804 27.9571 65.2929C27.7696 65.1054 27.5152 65 27.25 65H17.097L16.931 64H28.25C28.4906 64 28.7232 63.9133 28.9051 63.7557C29.0869 63.5981 29.2058 63.3802 29.24 63.142L30.24 56.142C30.2604 56.0001 30.25 55.8556 30.2097 55.7181C30.1693 55.5805 30.0998 55.4533 30.006 55.345ZM28.097 57L27.812 59H24.25V57H28.097ZM23.25 57V59H20.25V57H23.25ZM23.25 60V62H20.25V60H23.25ZM19.25 57V59H16.25L16.102 59.03L15.764 57H19.25ZM16.264 60H19.25V62H16.597L16.264 60ZM24.25 62V60H27.668L27.383 62H24.25Z" fill="white"/>
</svg>
