<svg width="20" height="20" viewBox="0 0 20 20" fill="none" xmlns="http://www.w3.org/2000/svg">
<path fill-rule="evenodd" clip-rule="evenodd" d="M11.087 19.388L11.629 18.472C12.049 17.762 12.259 17.406 12.597 17.21C12.935 17.013 13.36 17.006 14.21 16.991C15.466 16.97 16.253 16.893 16.913 16.619C17.5196 16.3677 18.0708 15.9994 18.5351 15.5351C18.9994 15.0708 19.3677 14.5196 19.619 13.913C20 12.995 20 11.83 20 9.5V8.5C20 5.227 20 3.59 19.263 2.388C18.851 1.7152 18.2856 1.14945 17.613 0.737C16.41 0 14.773 0 11.5 0H8.5C5.227 0 3.59 0 2.388 0.737C1.7152 1.14904 1.14945 1.71445 0.737 2.387C0 3.59 0 5.228 0 8.5V9.5C0 11.83 1.19209e-07 12.995 0.38 13.913C0.631389 14.5197 0.999842 15.071 1.46432 15.5353C1.92879 15.9996 2.48018 16.3678 3.087 16.619C3.747 16.893 4.534 16.969 5.79 16.991C6.64 17.006 7.065 17.013 7.403 17.21C7.74 17.406 7.951 17.761 8.371 18.472L8.913 19.388C9.396 20.204 10.603 20.204 11.087 19.388ZM14 10C14.2652 10 14.5196 9.89464 14.7071 9.70711C14.8946 9.51957 15 9.26522 15 9C15 8.73478 14.8946 8.48043 14.7071 8.29289C14.5196 8.10536 14.2652 8 14 8C13.7348 8 13.4804 8.10536 13.2929 8.29289C13.1054 8.48043 13 8.73478 13 9C13 9.26522 13.1054 9.51957 13.2929 9.70711C13.4804 9.89464 13.7348 10 14 10ZM11 9C11 9.26522 10.8946 9.51957 10.7071 9.70711C10.5196 9.89464 10.2652 10 10 10C9.73478 10 9.48043 9.89464 9.29289 9.70711C9.10536 9.51957 9 9.26522 9 9C9 8.73478 9.10536 8.48043 9.29289 8.29289C9.48043 8.10536 9.73478 8 10 8C10.2652 8 10.5196 8.10536 10.7071 8.29289C10.8946 8.48043 11 8.73478 11 9ZM6 10C6.26522 10 6.51957 9.89464 6.70711 9.70711C6.89464 9.51957 7 9.26522 7 9C7 8.73478 6.89464 8.48043 6.70711 8.29289C6.51957 8.10536 6.26522 8 6 8C5.73478 8 5.48043 8.10536 5.29289 8.29289C5.10536 8.48043 5 8.73478 5 9C5 9.26522 5.10536 9.51957 5.29289 9.70711C5.48043 9.89464 5.73478 10 6 10Z" fill="#6C6C6C"/>
</svg>
