<svg width="26" height="26" viewBox="0 0 26 26" fill="none" xmlns="http://www.w3.org/2000/svg">
<path fill-rule="evenodd" clip-rule="evenodd" d="M9.51786 0C7.085 0 4.83043 0.43674 3.13671 1.18942C2.29171 1.56483 1.53586 2.04246 0.976857 2.63159C0.408571 3.2263 0 3.98828 0 4.87848V16.0293C0 16.94 0.427143 17.7149 1.014 18.3152C1.59529 18.9137 2.379 19.395 3.25743 19.7723C3.53747 19.8792 3.84801 19.8736 4.12403 19.7566C4.40004 19.6397 4.62013 19.4204 4.7382 19.1446C4.85628 18.8689 4.86319 18.5582 4.75749 18.2775C4.6518 17.9968 4.44168 17.7679 4.17114 17.6387C3.47286 17.3377 2.97886 17.0069 2.678 16.6965C2.38086 16.3917 2.32143 16.1668 2.32143 16.0293V13.7322C2.61857 13.902 2.93057 14.0568 3.25743 14.1969C3.53747 14.3038 3.84801 14.2982 4.12403 14.1812C4.40004 14.0642 4.62013 13.8449 4.7382 13.5692C4.85628 13.2935 4.86319 12.9828 4.75749 12.7021C4.6518 12.4214 4.44168 12.1925 4.17114 12.0633C3.47286 11.7623 2.97886 11.4315 2.678 11.1211C2.38086 10.8163 2.32143 10.5914 2.32143 10.4539V8.15497C2.58143 8.30364 2.85381 8.44117 3.13857 8.56755C3.62143 8.78313 4.14514 8.97084 4.70971 9.13066C4.914 7.87434 5.56029 6.85776 6.25857 6.11994C7.09429 5.2446 8.13614 4.61272 9.15943 4.1574C11.2116 3.24675 13.8023 2.76912 16.4821 2.76912C17.0764 2.76912 17.6639 2.79204 18.2446 2.83788C18.1853 2.76683 18.1233 2.69802 18.0589 2.63159C17.4999 2.04246 16.744 1.56483 15.899 1.18942C14.2053 0.43674 11.9489 0 9.51786 0ZM26 9.97069C26 9.07863 25.5896 8.31665 25.0231 7.72194C24.4641 7.13467 23.7083 6.65704 22.8633 6.28163C21.1696 5.52895 18.9131 5.09221 16.4821 5.09221C14.0511 5.09221 11.7947 5.52895 10.101 6.28163C9.256 6.65704 8.50014 7.13467 7.94114 7.7238C7.37471 8.31851 6.96429 9.08049 6.96429 9.97069V21.1215C6.96429 22.0099 7.37286 22.77 7.93557 23.3647C8.49271 23.952 9.24671 24.4314 10.0899 24.8069C11.7799 25.5614 14.0363 26 16.4821 26C18.928 26 21.1844 25.5614 22.8744 24.8069C23.7176 24.4314 24.4716 23.952 25.0287 23.3628C25.5914 22.7681 26 22.0099 26 21.1215V9.97069ZM9.28571 13.2472C9.54571 13.3959 9.8181 13.5334 10.1029 13.6598C11.7929 14.4124 14.0511 14.8492 16.4821 14.8492C18.9131 14.8492 21.1696 14.4124 22.8633 13.6598C23.148 13.5359 23.4198 13.3983 23.6786 13.2472V15.5461C23.6786 15.6799 23.6229 15.8974 23.3443 16.191C23.0601 16.4883 22.594 16.8136 21.9291 17.1109C20.6013 17.7038 18.6791 18.1015 16.4821 18.1015C14.2851 18.1015 12.363 17.7038 11.0351 17.1109C10.3703 16.8136 9.90414 16.4902 9.62 16.191C9.34143 15.8974 9.28571 15.6799 9.28571 15.5461V13.2472ZM10.0899 19.2315C9.81542 19.1095 9.54706 18.9743 9.28571 18.8263V21.1234C9.28571 21.2572 9.34143 21.4746 9.62 21.7683C9.90414 22.0656 10.3703 22.3909 11.0351 22.6882C12.363 23.2811 14.2851 23.6788 16.4821 23.6788C18.681 23.6788 20.6013 23.2811 21.9291 22.6882C22.594 22.3909 23.0601 22.0675 23.3443 21.7683C23.6229 21.4746 23.6786 21.2572 23.6786 21.1234V18.8263C23.4223 18.9737 23.1542 19.11 22.8744 19.2352C21.1844 19.9878 18.9261 20.4264 16.4821 20.4264C14.0381 20.4264 11.7799 19.9878 10.0899 19.2333" fill="#6C6C6C"/>
</svg>
