<svg width="28" height="22" viewBox="0 0 28 22" fill="none" xmlns="http://www.w3.org/2000/svg">
<path d="M11.2 0H25.2C26.7444 0 28 1.2332 28 2.75V12.375C28 13.8918 26.7444 15.125 25.2 15.125H11.2C9.65562 15.125 8.4 13.8918 8.4 12.375V2.75C8.4 1.2332 9.65562 0 11.2 0ZM20.825 4.58477C20.6281 4.29688 20.3 4.125 19.95 4.125C19.6 4.125 19.2719 4.29688 19.075 4.58477L16.625 8.19414L15.8681 7.26172C15.6669 7.0168 15.365 6.875 15.05 6.875C14.735 6.875 14.4287 7.0168 14.2319 7.26172L11.4319 10.6992C11.1781 11.0086 11.13 11.434 11.305 11.7906C11.48 12.1473 11.8475 12.375 12.25 12.375H24.15C24.5394 12.375 24.8937 12.1645 25.0775 11.8293C25.2612 11.4941 25.2394 11.0859 25.025 10.7723L20.825 4.58477ZM14.7 4.125C14.7 3.76033 14.5525 3.41059 14.2899 3.15273C14.0274 2.89487 13.6713 2.75 13.3 2.75C12.9287 2.75 12.5726 2.89487 12.3101 3.15273C12.0475 3.41059 11.9 3.76033 11.9 4.125C11.9 4.48967 12.0475 4.83941 12.3101 5.09727C12.5726 5.35513 12.9287 5.5 13.3 5.5C13.6713 5.5 14.0274 5.35513 14.2899 5.09727C14.5525 4.83941 14.7 4.48967 14.7 4.125ZM2.8 5.5H7V17.875C7 18.6355 7.62562 19.25 8.4 19.25H14C14.7744 19.25 15.4 18.6355 15.4 17.875V16.5H22.4V19.25C22.4 20.7668 21.1444 22 19.6 22H2.8C1.25563 22 0 20.7668 0 19.25V8.25C0 6.7332 1.25563 5.5 2.8 5.5ZM3.15 8.25C2.765 8.25 2.45 8.55937 2.45 8.9375V9.625C2.45 10.0031 2.765 10.3125 3.15 10.3125H3.85C4.235 10.3125 4.55 10.0031 4.55 9.625V8.9375C4.55 8.55937 4.235 8.25 3.85 8.25H3.15ZM3.15 12.7188C2.765 12.7188 2.45 13.0281 2.45 13.4062V14.0938C2.45 14.4719 2.765 14.7812 3.15 14.7812H3.85C4.235 14.7812 4.55 14.4719 4.55 14.0938V13.4062C4.55 13.0281 4.235 12.7188 3.85 12.7188H3.15ZM3.15 17.1875C2.765 17.1875 2.45 17.4969 2.45 17.875V18.5625C2.45 18.9406 2.765 19.25 3.15 19.25H3.85C4.235 19.25 4.55 18.9406 4.55 18.5625V17.875C4.55 17.4969 4.235 17.1875 3.85 17.1875H3.15ZM17.85 17.875V18.5625C17.85 18.9406 18.165 19.25 18.55 19.25H19.25C19.635 19.25 19.95 18.9406 19.95 18.5625V17.875C19.95 17.4969 19.635 17.1875 19.25 17.1875H18.55C18.165 17.1875 17.85 17.4969 17.85 17.875Z" fill="#6C6C6C"/>
</svg>
