<svg width="4" height="13" viewBox="0 0 4 13" fill="none" xmlns="http://www.w3.org/2000/svg">
<path d="M1.71094 9.5791C2.65531 9.57932 3.42068 10.3447 3.4209 11.2891C3.4209 12.2336 2.65545 12.9998 1.71094 13C0.76624 13 0 12.2338 0 11.2891C0.000222036 10.3446 0.766377 9.5791 1.71094 9.5791ZM1.71094 4.78906C2.65545 4.78928 3.4209 5.55544 3.4209 6.5C3.4209 7.44456 2.65545 8.21072 1.71094 8.21094C0.76624 8.21094 6.44266e-08 7.4447 0 6.5C0 5.5553 0.76624 4.78906 1.71094 4.78906ZM1.71094 0C2.65545 0.000222165 3.4209 0.766377 3.4209 1.71094C3.42068 2.65531 2.65531 3.42068 1.71094 3.4209C0.766377 3.4209 0.000222165 2.65545 0 1.71094C0 0.76624 0.76624 0 1.71094 0Z" fill="#D9D9D9"/>
</svg>
