<svg width="18" height="20" viewBox="0 0 18 20" fill="none" xmlns="http://www.w3.org/2000/svg">
<g clip-path="url(#clip0_377_2812)">
<path d="M5.49241 0.230469C5.6692 -0.28125 6.15938 -0.625 6.71384 -0.625H11.2902C11.8446 -0.625 12.3348 -0.28125 12.5116 0.230469L12.8571 1.25H16.7143C17.4254 1.25 18 1.80859 18 2.5C18 3.19141 17.4254 3.75 16.7143 3.75H1.28571C0.574554 3.75 0 3.19141 0 2.5C0 1.80859 0.574554 1.25 1.28571 1.25H5.14286L5.49241 0.230469ZM1.28571 5.625H16.7143V17.5C16.7143 18.8789 15.5612 20 14.1429 20H3.85714C2.43884 20 1.28571 18.8789 1.28571 17.5V5.625ZM4.82143 8.125C4.28705 8.125 3.85714 8.54297 3.85714 9.0625V16.5625C3.85714 17.082 4.28705 17.5 4.82143 17.5C5.3558 17.5 5.78571 17.082 5.78571 16.5625V9.0625C5.78571 8.54297 5.3558 8.125 4.82143 8.125ZM9 8.125C8.46562 8.125 8.03571 8.54297 8.03571 9.0625V16.5625C8.03571 17.082 8.46562 17.5 9 17.5C9.53438 17.5 9.96429 17.082 9.96429 16.5625V9.0625C9.96429 8.54297 9.53438 8.125 9 8.125ZM13.1786 8.125C12.6442 8.125 12.2143 8.54297 12.2143 9.0625V16.5625C12.2143 17.082 12.6442 17.5 13.1786 17.5C13.7129 17.5 14.1429 17.082 14.1429 16.5625V9.0625C14.1429 8.54297 13.7129 8.125 13.1786 8.125Z" fill="white"/>
</g>
<defs>
<clipPath id="clip0_377_2812">
<rect width="18" height="20" fill="white"/>
</clipPath>
</defs>
</svg>
