<svg width="18" height="21" viewBox="0 0 18 21" fill="none" xmlns="http://www.w3.org/2000/svg">
<g clip-path="url(#clip0_120_3127)">
<path d="M5.49241 0.241992C5.6692 -0.295313 6.15938 -0.65625 6.71384 -0.65625H11.2902C11.8446 -0.65625 12.3348 -0.295313 12.5116 0.241992L12.8571 1.3125H16.7143C17.4254 1.3125 18 1.89902 18 2.625C18 3.35098 17.4254 3.9375 16.7143 3.9375H1.28571C0.574554 3.9375 0 3.35098 0 2.625C0 1.89902 0.574554 1.3125 1.28571 1.3125H5.14286L5.49241 0.241992ZM1.28571 5.90625H16.7143V18.375C16.7143 19.8229 15.5612 21 14.1429 21H3.85714C2.43884 21 1.28571 19.8229 1.28571 18.375V5.90625ZM4.82143 8.53125C4.28705 8.53125 3.85714 8.97012 3.85714 9.51562V17.3906C3.85714 17.9361 4.28705 18.375 4.82143 18.375C5.3558 18.375 5.78571 17.9361 5.78571 17.3906V9.51562C5.78571 8.97012 5.3558 8.53125 4.82143 8.53125ZM9 8.53125C8.46562 8.53125 8.03571 8.97012 8.03571 9.51562V17.3906C8.03571 17.9361 8.46562 18.375 9 18.375C9.53438 18.375 9.96429 17.9361 9.96429 17.3906V9.51562C9.96429 8.97012 9.53438 8.53125 9 8.53125ZM13.1786 8.53125C12.6442 8.53125 12.2143 8.97012 12.2143 9.51562V17.3906C12.2143 17.9361 12.6442 18.375 13.1786 18.375C13.7129 18.375 14.1429 17.9361 14.1429 17.3906V9.51562C14.1429 8.97012 13.7129 8.53125 13.1786 8.53125Z" fill="#F9D040"/>
</g>
<defs>
<clipPath id="clip0_120_3127">
<rect width="18" height="21" fill="white"/>
</clipPath>
</defs>
</svg>
